<svg xmlns="http://www.w3.org/2000/svg" version="1.1" xmlns:xlink="http://www.w3.org/1999/xlink" xmlns:svgjs="http://svgjs.dev/svgjs" width="1000" height="1000" viewBox="0 0 1000 1000"><rect width="1000" height="1000" fill="#ffffff"></rect><g transform="matrix(0.7,0,0,0.7,149.84897959183672,150.19913061224486)"><svg viewBox="0 0 343 343" data-background-color="#f0cf90" preserveAspectRatio="xMidYMid meet" height="999" width="1000" xmlns="http://www.w3.org/2000/svg" xmlns:xlink="http://www.w3.org/1999/xlink"><g id="tight-bounds" transform="matrix(1,0,0,1,0.07400000000001228,0.07400000000001228)"><svg viewBox="0 0 342.8515585177538 342.8515585177538" height="342.8515585177538" width="342.8515585177538"><g><svg></svg></g><g><svg viewBox="0 0 342.8515585177538 342.8515585177538" height="342.8515585177538" width="342.8515585177538"><g><path d="M0 171.426c0-94.676 76.75-171.426 171.426-171.426 94.676 0 171.426 76.75 171.426 171.426 0 94.676-76.75 171.426-171.426 171.426-94.676 0-171.426-76.75-171.426-171.426zM171.426 339.467c92.807 0 168.041-75.235 168.041-168.041 0-92.807-75.235-168.041-168.041-168.041-92.807 0-168.041 75.235-168.041 168.041 0 92.807 75.235 168.041 168.041 168.041z" data-fill-palette-color="tertiary" fill="#000000" stroke="transparent"></path><ellipse rx="164.56874808852183" ry="164.56874808852183" cx="171.4257792588769" cy="171.4257792588769" fill="#000000" stroke="transparent" stroke-width="0" fill-opacity="1" data-fill-palette-color="tertiary"></ellipse></g><g transform="matrix(1,0,0,1,64.84655864529836,96.36132262433541)"><svg viewBox="0 0 213.15844122715708 150.12891326908297" height="150.12891326908297" width="213.15844122715708"><g><svg viewBox="0 0 213.15844122715708 150.12891326908297" height="150.12891326908297" width="213.15844122715708"><g><svg viewBox="0 0 213.15844122715714 150.128913269083" height="150.12891326908297" width="213.15844122715708"><g transform="matrix(1,0,0,1,0,112.5973980506014)"><svg viewBox="0 0 213.15844122715714 37.531515218481594" height="37.531515218481594" width="213.15844122715714"><g id="textblocktransform"><svg viewBox="0 0 213.15844122715714 37.531515218481594" height="37.531515218481594" width="213.15844122715714" id="textblock"><g><svg viewBox="0 0 213.15844122715714 37.531515218481594" height="37.531515218481594" width="213.15844122715714"><g transform="matrix(1,0,0,1,0,0)"><svg width="213.15844122715714" viewBox="2.8499999046325684 -36 207.27999877929688 36.5" height="37.531515218481594" data-palette-color="#f0cf90"><path d="M34.45-34.3L24-20.55 34.75 0 23 0 17.05-12.4 13.05-7.6 13.05 0 2.85 0 2.85-34.3 13.05-34.3 13.05-20.75 22.85-34.3 34.45-34.3ZM46.65-22.55Q49.05-26.05 52.95-26.05L52.95-26.05 54.35-26.05Q56.4-26.05 58.12-25.05 59.85-24.05 60.85-22.33 61.85-20.6 61.85-18.55L61.85-18.55 61.85 0 51.95 0 51.95-16Q51.95-17.25 51.17-18.13 50.4-19 49.3-19L49.3-19Q48.2-19 47.42-18.13 46.65-17.25 46.65-16L46.65-16 46.65 0 36.75 0 36.75-36 46.65-36 46.65-22.55ZM80.45-26.05Q84.3-26.05 87.07-24.58 89.85-23.1 91.32-20.5 92.8-17.9 92.8-14.55L92.8-14.55 92.8-11.45 76.15-11.45 76.15-9.05Q76.15-7.35 77.22-6.45 78.3-5.55 80-5.55L80-5.55Q81.75-5.55 82.67-6.63 83.6-7.7 83.6-9.6L83.6-9.6 92.75-9.6Q92.75-6.75 91.27-4.45 89.8-2.15 86.97-0.83 84.15 0.5 80.3 0.5L80.3 0.5 79.55 0.5Q75.55 0.5 72.37-0.98 69.2-2.45 67.37-5.28 65.55-8.1 65.55-12L65.55-12 65.55-13.55Q65.55-17.45 67.27-20.28 69-23.1 72.1-24.58 75.2-26.05 79.2-26.05L79.2-26.05 80.45-26.05ZM79.6-20Q78.15-20 77.15-18.98 76.15-17.95 76.15-16.5L76.15-16.5 76.15-15.8 83.05-15.8 83.05-16.5Q83.05-17.95 82.05-18.98 81.05-20 79.6-20L79.6-20ZM121.79 0L113.89 0 112.99-2.95Q110.24 0.5 106.54 0.5L106.54 0.5Q103.44 0.5 100.97-0.95 98.49-2.4 97.07-5.33 95.64-8.25 95.64-12.5L95.64-12.5 95.64-13.05Q95.64-17.3 96.92-20.23 98.19-23.15 100.37-24.6 102.54-26.05 105.29-26.05L105.29-26.05Q109.99-26.05 111.89-22.9L111.89-22.9 111.89-36 121.79-36 121.79 0ZM108.79-19.8Q107.49-19.8 106.59-18.78 105.69-17.75 105.69-16.3L105.69-16.3 105.69-9.05Q105.69-7.6 106.59-6.58 107.49-5.55 108.79-5.55L108.79-5.55Q110.09-5.55 110.99-6.58 111.89-7.6 111.89-9.05L111.89-9.05 111.89-16.3Q111.89-17.75 110.99-18.78 110.09-19.8 108.79-19.8L108.79-19.8ZM136.69-22.55Q139.09-26.05 142.99-26.05L142.99-26.05 144.39-26.05Q146.44-26.05 148.17-25.05 149.89-24.05 150.89-22.33 151.89-20.6 151.89-18.55L151.89-18.55 151.89 0 141.99 0 141.99-16Q141.99-17.25 141.22-18.13 140.44-19 139.34-19L139.34-19Q138.24-19 137.47-18.13 136.69-17.25 136.69-16L136.69-16 136.69 0 126.79 0 126.79-36 136.69-36 136.69-22.55ZM169.84-26.05Q175.64-26.05 178.71-23.8 181.79-21.55 181.79-17.95L181.79-17.95 181.79-7.4Q181.79-6.45 182.24-6 182.69-5.55 183.34-5.55L183.34-5.55Q184.29-5.55 185.09-6L185.09-6 185.09-0.65Q183.49 0.5 180.04 0.5L180.04 0.5Q176.84 0.5 174.99-0.58 173.14-1.65 172.69-3.55L172.69-3.55Q171.09-1.7 169.16-0.6 167.24 0.5 164.44 0.5L164.44 0.5Q160.44 0.5 157.94-1.05 155.44-2.6 155.44-7.15L155.44-7.15Q155.44-10.6 157.39-12.48 159.34-14.35 162.96-15.08 166.59-15.8 172.19-15.8L172.19-15.8 172.19-17.25Q172.19-18.65 171.26-19.45 170.34-20.25 168.94-20.25L168.94-20.25Q167.79-20.25 166.76-19.58 165.74-18.9 165.74-17.9L165.74-17.9 165.74-17.7 156.24-17.7Q156.19-17.85 156.19-18.4L156.19-18.4Q156.19-20.55 157.66-22.28 159.14-24 161.86-25.03 164.59-26.05 168.19-26.05L168.19-26.05 169.84-26.05ZM172.19-11.25Q168.89-11.25 167.34-10.38 165.79-9.5 165.79-7.95L165.79-7.95Q165.79-5.55 168.79-5.55L168.79-5.55Q170.19-5.55 171.19-6.53 172.19-7.5 172.19-9.05L172.19-9.05 172.19-11.25ZM203.19-26.05Q206.49-26.05 208.31-24.23 210.13-22.4 210.13-19.2L210.13-19.2 210.13-18.35 210.03-16.45 209.94-15.2 201.84-15.2 201.84-16.4Q201.84-17.45 201.21-18.18 200.59-18.9 199.74-18.9L199.74-18.9Q198.84-18.9 198.21-18.18 197.59-17.45 197.59-16.4L197.59-16.4 197.59 0 187.94 0 187.94-25.55 195.34-25.55 196.44-21.85Q196.74-22.45 197.59-23.45 198.44-24.45 199.88-25.25 201.34-26.05 203.19-26.05L203.19-26.05Z" opacity="1" transform="matrix(1,0,0,1,0,0)" fill="#ffffff" class="wordmark-text-0" data-fill-palette-color="quaternary" id="text-0"></path></svg></g></svg></g></svg></g></svg></g><g transform="matrix(1,0,0,1,54.7104518578552,0)"><svg viewBox="0 0 103.73753751144675 103.73710806388314" height="103.73710806388314" width="103.73753751144675"><g><svg xmlns="http://www.w3.org/2000/svg" xmlns:xlink="http://www.w3.org/1999/xlink" version="1.0" x="0" y="0" viewBox="4.667734146118164 4.6859588623046875 90.3050308227539 90.30465698242188" enable-background="new 0 0 100 100" xml:space="preserve" height="103.73710806388314" width="103.73753751144675" class="icon-icon-0" data-fill-palette-color="quaternary" id="icon-0"><path d="M17.504 35.743c-1.334 8.611 0.522 17.134 5.093 23.382 3.514 4.801 8.413 7.905 13.796 8.739 5.677 0.88 11.253-0.429 15.703-3.685 1.248-0.912 2.36-1.946 3.326-3.076-2.222 0.978-4.814 1.267-7.626 0.831-11.717-1.816-19.673-13.464-17.735-25.964 0.934-6.03 4.384-11.497 9.713-15.397 6.768-4.952 15.953-6.97 25.201-5.537 7.474 1.158 17.67 5.964 25.56 15.213 0 0-22.835-39.421-56.115-20.356C23.689 16.04 18.653 28.323 17.504 35.743z" fill="#ffffff" data-fill-palette-color="quaternary"></path><path d="M82.544 65.256c1.659-8.555 0.125-17.141-4.207-23.557-3.331-4.931-8.109-8.217-13.457-9.253-5.639-1.094-11.261 0.004-15.83 3.091-1.282 0.863-2.431 1.854-3.44 2.947 2.257-0.894 4.859-1.084 7.652-0.543 11.64 2.257 19.151 14.196 16.744 26.616-1.161 5.989-4.815 11.324-10.288 15.019-6.949 4.692-16.205 6.364-25.393 4.582C26.902 82.719 16.894 77.532 9.358 67.992c0 0 21.331 40.255 55.307 22.457C75.621 84.712 81.115 72.628 82.544 65.256z" fill="#ffffff" data-fill-palette-color="quaternary"></path><path d="M35.726 82.88c8.611 1.334 17.133-0.522 23.381-5.094 4.801-3.514 7.905-8.413 8.74-13.796 0.879-5.676-0.429-11.253-3.686-15.702-0.912-1.248-1.946-2.36-3.076-3.327 0.979 2.222 1.267 4.815 0.831 7.626-1.816 11.717-13.463 19.673-25.965 17.736-6.029-0.934-11.497-4.385-15.395-9.713-4.952-6.768-6.971-15.954-5.538-25.202 1.158-7.474 5.964-17.67 15.213-25.559 0 0-39.421 22.835-20.356 56.115C16.022 76.695 28.305 81.73 35.726 82.88z" fill="#ffffff" data-fill-palette-color="quaternary"></path><path d="M90.432 35.718c-5.738-10.955-17.822-16.45-25.194-17.879-8.554-1.659-17.141-0.125-23.557 4.208-4.931 3.331-8.217 8.108-9.254 13.456-1.094 5.64 0.004 11.261 3.092 15.83 0.863 1.282 1.854 2.431 2.946 3.441-0.894-2.257-1.084-4.859-0.542-7.652 2.257-11.64 14.196-19.151 26.615-16.744 5.99 1.161 11.324 4.816 15.019 10.289 4.693 6.949 6.363 16.204 4.583 25.392-1.44 7.423-6.626 17.431-16.167 24.966C67.973 91.025 108.228 69.694 90.432 35.718z" fill="#ffffff" data-fill-palette-color="quaternary"></path></svg></g></svg></g><g></g></svg></g></svg></g></svg></g></svg></g><defs></defs></svg><rect width="342.8515585177538" height="342.8515585177538" fill="none" stroke="none" visibility="hidden"></rect></g></svg></g></svg>